<svg xmlns="http://www.w3.org/2000/svg" width="24" height="24" viewBox="0 0 24 24" fill="none" stroke="#ff355d" stroke-width="2.15" stroke-linecap="round" stroke-linejoin="round"><defs><filter id="g"><feGaussianBlur stdDeviation="1.1" result="b"/><feMerge><feMergeNode in="b"/><feMergeNode in="SourceGraphic"/></feMerge></filter></defs><path filter="url(#g)" d="M6 4h12a2 2 0 0 1 2 2v12a2 2 0 0 1-2 2H6a2 2 0 0 1-2-2V6a2 2 0 0 1 2-2Z"/><path filter="url(#g)" d="M8 4v16M4 8H2M4 12H2M4 16H2"/><path filter="url(#g)" d="M14 11a2 2 0 1 0 0-4a2 2 0 0 0 0 4Z"/><path filter="url(#g)" d="M10.5 16a3.5 3.5 0 0 1 7 0"/></svg>