<svg xmlns="http://www.w3.org/2000/svg" width="24" height="24" viewBox="0 0 24 24" fill="none" stroke="#ff355d" stroke-width="2.15" stroke-linecap="round" stroke-linejoin="round"><defs><filter id="g"><feGaussianBlur stdDeviation="1.1" result="b"/><feMerge><feMergeNode in="b"/><feMergeNode in="SourceGraphic"/></feMerge></filter></defs><path filter="url(#g)" d="M12 12a4 4 0 1 0 0-8a4 4 0 0 0 0 8Z"/><path filter="url(#g)" d="M4 21a8 8 0 0 1 16 0"/><path filter="url(#g)" d="M18 8.5a3 3 0 0 1 2.2 5.05M6 8.5a3 3 0 0 0-2.2 5.05"/><path filter="url(#g)" d="M20.5 21a5.5 5.5 0 0 0-3.2-4.9M3.5 21a5.5 5.5 0 0 1 3.2-4.9"/></svg>