<svg xmlns="http://www.w3.org/2000/svg" width="24" height="24" viewBox="0 0 24 24" fill="none" stroke="#ff355d" stroke-width="2.15" stroke-linecap="round" stroke-linejoin="round"><defs><filter id="g"><feGaussianBlur stdDeviation="1.1" result="b"/><feMerge><feMergeNode in="b"/><feMergeNode in="SourceGraphic"/></feMerge></filter></defs><path filter="url(#g)" d="M10.33 4.32c.42-1.76 2.92-1.76 3.34 0a1.72 1.72 0 0 0 2.58 1.06c1.54-.94 3.31.83 2.37 2.37a1.72 1.72 0 0 0 1.06 2.58c1.76.42 1.76 2.92 0 3.34a1.72 1.72 0 0 0-1.06 2.58c.94 1.54-.83 3.31-2.37 2.37a1.72 1.72 0 0 0-2.58 1.06c-.42 1.76-2.92 1.76-3.34 0a1.72 1.72 0 0 0-2.58-1.06c-1.54.94-3.31-.83-2.37-2.37a1.72 1.72 0 0 0-1.06-2.58c-1.76-.42-1.76-2.92 0-3.34a1.72 1.72 0 0 0 1.06-2.58c-.94-1.54.83-3.31 2.37-2.37c1 .61 2.3.07 2.58-1.06Z"/><path filter="url(#g)" d="M9 12a3 3 0 1 0 6 0a3 3 0 0 0-6 0"/></svg>